<svg xmlns="http://www.w3.org/2000/svg"
     viewBox="0 0 640 480"
     width="640"
     height="480"
     aria-label="European Union Flag">

  <!-- Blue background -->
  <rect width="640" height="480" fill="#003399"/>

  <!-- Stars -->
  <g fill="#FFCC00" transform="translate(320 240)">
    <g id="star">
      <polygon points="
        0,-40
        9.5,-12
        38,-12
        15,5
        23,32
        0,16
        -23,32
        -15,5
        -38,-12
        -9.5,-12
      "/>
    </g>

    <use href="#star" transform="rotate(0) translate(0,-160)"/>
    <use href="#star" transform="rotate(30) translate(0,-160)"/>
    <use href="#star" transform="rotate(60) translate(0,-160)"/>
    <use href="#star" transform="rotate(90) translate(0,-160)"/>
    <use href="#star" transform="rotate(120) translate(0,-160)"/>
    <use href="#star" transform="rotate(150) translate(0,-160)"/>
    <use href="#star" transform="rotate(180) translate(0,-160)"/>
    <use href="#star" transform="rotate(210) translate(0,-160)"/>
    <use href="#star" transform="rotate(240) translate(0,-160)"/>
    <use href="#star" transform="rotate(270) translate(0,-160)"/>
    <use href="#star" transform="rotate(300) translate(0,-160)"/>
    <use href="#star" transform="rotate(330) translate(0,-160)"/>
  </g>

</svg>

